<?xml version="1.0" encoding="utf-8"?>
<svg version="1.1" id="Capa_1" xmlns="http://www.w3.org/2000/svg" xmlns:xlink="http://www.w3.org/1999/xlink" x="0px" y="0px"
	 viewBox="0 0 160 160" style="enable-background:new 0 0 160 160;" xml:space="preserve">
<style type="text/css">
	.st0{fill:#40A578;}
	.st1{fill:#9DDE8B;}
</style>
<g>
	<path class="st0" d="M135.6,28.2c-0.6-1.6-1.6-3-3-4c-0.7-0.5-1.5-0.9-2.4-1.1L89.1,11.3c-2.6-0.7-5.1,1.2-5.1,3.8
		c0,0,0,126.5,0.1,131.3c0,1.6,1.8,2.6,3.1,1.6c5-3.5,12.1-8.9,19.4-15.9c7.2-7,14.6-15.7,20.1-25.7s9.3-21.3,9.3-33.8v-42
		C136,29.8,135.9,29,135.6,28.2z"/>
	<path class="st1" d="M76,15.1c0-2.7-2.5-4.6-5.1-3.8L29.8,23c-0.9,0.2-1.7,0.6-2.4,1.1C25.3,25.6,24,28,24,30.7v42
		c0,12.4,3.7,23.8,9.3,33.8s12.9,18.6,20.1,25.7c6.2,6.1,14.8,12.5,19.3,15.8c1.3,1,3.2,0,3.2-1.6C76,139.5,76,15.1,76,15.1z"/>
</g>
</svg>
