<svg xmlns="http://www.w3.org/2000/svg" xmlns:xlink="http://www.w3.org/1999/xlink" zoomAndPan="magnify" preserveAspectRatio="xMidYMid meet" version="1.0" viewBox="37.65 146.85 297 81.18"><defs><g/><clipPath id="id1"><path d="M 56.269531 146.863281 L 125.269531 146.863281 L 125.269531 206.113281 L 56.269531 206.113281 Z M 56.269531 146.863281 " clip-rule="nonzero"/></clipPath><clipPath id="id2"><path d="M 37.5 157.816406 L 106.5 157.816406 L 106.5 217.066406 L 37.5 217.066406 Z M 37.5 157.816406 " clip-rule="nonzero"/></clipPath><clipPath id="id3"><path d="M 56.269531 168.773438 L 125.269531 168.773438 L 125.269531 228.023438 L 56.269531 228.023438 Z M 56.269531 168.773438 " clip-rule="nonzero"/></clipPath></defs><g fill="#111f25" fill-opacity="1"><g transform="translate(135.861881, 210.370592)"><g><path d="M 13.546875 -1.457031 C 7.136719 -1.457031 5.472656 -4.898438 5.472656 -8.335938 L 3.386719 -8.335938 L 3.386719 -8.128906 C 3.386719 -4.324219 5.785156 0.519531 13.546875 0.519531 C 20.007812 0.519531 23.707031 -2.761719 23.707031 -7.191406 L 23.707031 -7.398438 C 23.707031 -12.191406 21.257812 -14.378906 14.328125 -14.902344 C 7.398438 -15.472656 5.886719 -17.296875 5.886719 -20.582031 C 5.886719 -24.175781 8.753906 -26.15625 13.546875 -26.15625 C 19.589844 -26.15625 21.363281 -23.289062 21.363281 -18.757812 L 23.445312 -18.757812 L 23.445312 -18.964844 C 23.445312 -24.175781 20.894531 -28.136719 13.546875 -28.136719 C 7.085938 -28.136719 3.699219 -24.90625 3.699219 -20.683594 L 3.699219 -20.425781 C 3.699219 -16.671875 5.472656 -13.859375 12.765625 -13.183594 C 18.859375 -12.660156 21.519531 -11.722656 21.519531 -7.292969 C 21.519531 -3.699219 18.652344 -1.457031 13.546875 -1.457031 Z M 13.546875 -1.457031 "/></g></g></g><g fill="#111f25" fill-opacity="1"><g transform="translate(162.954691, 210.370592)"><g><path d="M 4.167969 0 L 6.253906 0 L 6.253906 -27.613281 L 4.167969 -27.613281 Z M 6.773438 -38.296875 L 3.648438 -38.296875 L 3.648438 -35.167969 L 6.773438 -35.167969 Z M 6.773438 -38.296875 "/></g></g></g><g fill="#111f25" fill-opacity="1"><g transform="translate(173.375005, 210.370592)"><g><path d="M 13.546875 -28.136719 C 5.992188 -28.136719 2.867188 -21.882812 2.867188 -14.328125 L 2.867188 -13.285156 C 2.867188 -5.730469 5.992188 0.519531 13.546875 0.519531 C 17.921875 0.519531 20.527344 -1.5625 21.882812 -3.90625 L 22.402344 0 L 23.96875 0 L 23.707031 -7.816406 L 23.707031 -41.683594 L 21.621094 -41.683594 L 21.621094 -24.175781 C 20.164062 -26.3125 17.664062 -28.136719 13.546875 -28.136719 Z M 21.621094 -6.253906 C 20.320312 -4.167969 18.027344 -1.457031 13.808594 -1.457031 C 7.917969 -1.457031 5.054688 -6.097656 5.054688 -13.285156 L 5.054688 -14.328125 C 5.054688 -21.519531 7.917969 -26.15625 13.808594 -26.15625 C 18.027344 -26.15625 20.320312 -23.445312 21.621094 -21.363281 Z M 21.621094 -6.253906 "/></g></g></g><g fill="#111f25" fill-opacity="1"><g transform="translate(200.728317, 210.370592)"><g><path d="M 25.269531 -12.816406 L 25.269531 -14.328125 C 25.269531 -21.882812 21.933594 -28.136719 14.066406 -28.136719 C 6.199219 -28.136719 2.867188 -21.882812 2.867188 -14.328125 L 2.867188 -13.285156 C 2.867188 -5.730469 6.253906 0.519531 14.328125 0.519531 C 22.039062 0.519531 25.269531 -4.6875 25.269531 -8.648438 L 25.269531 -8.859375 L 23.1875 -8.859375 C 23.1875 -5.472656 20.738281 -1.457031 14.328125 -1.457031 C 7.917969 -1.457031 5.15625 -6.042969 5.054688 -12.816406 Z M 14.066406 -26.15625 C 20.113281 -26.15625 22.925781 -21.570312 23.082031 -14.796875 L 5.054688 -14.796875 C 5.15625 -21.570312 7.972656 -26.15625 14.066406 -26.15625 Z M 14.066406 -26.15625 "/></g></g></g><g fill="#111f25" fill-opacity="1"><g transform="translate(228.863157, 210.370592)"><g><path d="M 5.730469 -41.683594 L 3.648438 -41.683594 L 3.648438 -7.816406 L 3.386719 0 L 4.949219 0 L 5.417969 -3.90625 C 6.824219 -1.5625 9.378906 0.519531 13.808594 0.519531 C 21.363281 0.519531 24.488281 -5.730469 24.488281 -13.285156 L 24.488281 -14.328125 C 24.488281 -21.882812 21.363281 -28.136719 13.808594 -28.136719 C 9.691406 -28.136719 7.136719 -26.3125 5.730469 -24.175781 Z M 5.730469 -6.253906 L 5.730469 -21.363281 C 7.035156 -23.445312 9.328125 -26.15625 13.546875 -26.15625 C 19.433594 -26.15625 22.300781 -21.519531 22.300781 -14.328125 L 22.300781 -13.285156 C 22.300781 -6.097656 19.433594 -1.457031 13.546875 -1.457031 C 9.328125 -1.457031 7.035156 -4.167969 5.730469 -6.253906 Z M 5.730469 -6.253906 "/></g></g></g><g fill="#111f25" fill-opacity="1"><g transform="translate(256.216469, 210.370592)"><g><path d="M 21.101562 0 L 22.664062 0 L 22.402344 -7.816406 L 22.402344 -17.976562 C 22.402344 -23.863281 20.214844 -28.136719 13.027344 -28.136719 C 5.210938 -28.136719 3.648438 -22.925781 3.648438 -18.964844 L 3.648438 -18.496094 L 5.730469 -18.496094 C 5.730469 -22.664062 7.035156 -26.15625 13.027344 -26.15625 C 18.601562 -26.15625 20.320312 -23.34375 20.320312 -17.976562 L 20.320312 -16.933594 L 11.359375 -15.527344 C 7.292969 -14.902344 2.605469 -13.285156 2.605469 -7.292969 L 2.605469 -6.773438 C 2.605469 -2.34375 5.730469 0.519531 10.421875 0.519531 C 15.628906 0.519531 18.808594 -1.773438 20.582031 -4.167969 Z M 10.679688 -1.457031 C 6.511719 -1.457031 4.6875 -4.011719 4.6875 -6.773438 L 4.6875 -7.292969 C 4.6875 -10.890625 7.292969 -12.816406 11.203125 -13.496094 L 20.320312 -15.003906 L 20.320312 -6.667969 C 19.328125 -4.898438 16.828125 -1.457031 10.679688 -1.457031 Z M 10.679688 -1.457031 "/></g></g></g><g fill="#111f25" fill-opacity="1"><g transform="translate(282.267249, 210.370592)"><g><path d="M 13.546875 -1.457031 C 7.136719 -1.457031 5.472656 -4.898438 5.472656 -8.335938 L 3.386719 -8.335938 L 3.386719 -8.128906 C 3.386719 -4.324219 5.785156 0.519531 13.546875 0.519531 C 20.007812 0.519531 23.707031 -2.761719 23.707031 -7.191406 L 23.707031 -7.398438 C 23.707031 -12.191406 21.257812 -14.378906 14.328125 -14.902344 C 7.398438 -15.472656 5.886719 -17.296875 5.886719 -20.582031 C 5.886719 -24.175781 8.753906 -26.15625 13.546875 -26.15625 C 19.589844 -26.15625 21.363281 -23.289062 21.363281 -18.757812 L 23.445312 -18.757812 L 23.445312 -18.964844 C 23.445312 -24.175781 20.894531 -28.136719 13.546875 -28.136719 C 7.085938 -28.136719 3.699219 -24.90625 3.699219 -20.683594 L 3.699219 -20.425781 C 3.699219 -16.671875 5.472656 -13.859375 12.765625 -13.183594 C 18.859375 -12.660156 21.519531 -11.722656 21.519531 -7.292969 C 21.519531 -3.699219 18.652344 -1.457031 13.546875 -1.457031 Z M 13.546875 -1.457031 "/></g></g></g><g fill="#111f25" fill-opacity="1"><g transform="translate(309.360059, 210.370592)"><g><path d="M 25.269531 -12.816406 L 25.269531 -14.328125 C 25.269531 -21.882812 21.933594 -28.136719 14.066406 -28.136719 C 6.199219 -28.136719 2.867188 -21.882812 2.867188 -14.328125 L 2.867188 -13.285156 C 2.867188 -5.730469 6.253906 0.519531 14.328125 0.519531 C 22.039062 0.519531 25.269531 -4.6875 25.269531 -8.648438 L 25.269531 -8.859375 L 23.1875 -8.859375 C 23.1875 -5.472656 20.738281 -1.457031 14.328125 -1.457031 C 7.917969 -1.457031 5.15625 -6.042969 5.054688 -12.816406 Z M 14.066406 -26.15625 C 20.113281 -26.15625 22.925781 -21.570312 23.082031 -14.796875 L 5.054688 -14.796875 C 5.15625 -21.570312 7.972656 -26.15625 14.066406 -26.15625 Z M 14.066406 -26.15625 "/></g></g></g><g clip-path="url(#id1)"><path fill="#111f25" d="M 122.289062 206.113281 L 59.25 206.113281 C 58.234375 206.113281 57.3125 205.59375 56.804688 204.707031 C 56.296875 203.828125 56.296875 202.777344 56.804688 201.898438 L 87.679688 148.644531 C 88.324219 147.535156 89.480469 146.863281 90.769531 146.863281 C 92.0625 146.863281 93.214844 147.523438 93.859375 148.644531 L 124.734375 201.914062 C 125.242188 202.789062 125.242188 203.84375 124.734375 204.71875 C 124.210938 205.59375 123.304688 206.113281 122.289062 206.113281 Z M 58.496094 202.871094 C 58.261719 203.269531 58.414062 203.609375 58.496094 203.746094 C 58.578125 203.882812 58.796875 204.183594 59.25 204.183594 L 122.273438 204.183594 C 122.726562 204.183594 122.960938 203.882812 123.03125 203.746094 C 123.113281 203.609375 123.265625 203.269531 123.03125 202.871094 L 92.171875 149.601562 C 91.882812 149.09375 91.359375 148.792969 90.769531 148.792969 C 90.179688 148.792969 89.65625 149.09375 89.367188 149.601562 Z M 58.496094 202.871094 " fill-opacity="1" fill-rule="nonzero"/></g><g clip-path="url(#id2)"><path fill="#585e63" d="M 103.519531 217.066406 L 40.480469 217.066406 C 39.464844 217.066406 38.542969 216.546875 38.035156 215.660156 C 37.527344 214.78125 37.527344 213.730469 38.035156 212.855469 L 68.910156 159.597656 C 69.554688 158.488281 70.710938 157.816406 72 157.816406 C 73.289062 157.816406 74.445312 158.476562 75.089844 159.597656 L 105.964844 212.867188 C 106.472656 213.742188 106.472656 214.796875 105.964844 215.671875 C 105.441406 216.546875 104.535156 217.066406 103.519531 217.066406 Z M 39.726562 213.824219 C 39.492188 214.222656 39.644531 214.5625 39.726562 214.699219 C 39.808594 214.835938 40.027344 215.140625 40.480469 215.140625 L 103.503906 215.140625 C 103.957031 215.140625 104.191406 214.835938 104.261719 214.699219 C 104.34375 214.5625 104.496094 214.222656 104.261719 213.824219 L 73.402344 160.554688 C 73.113281 160.046875 72.589844 159.746094 72 159.746094 C 71.410156 159.746094 70.886719 160.046875 70.597656 160.554688 Z M 39.726562 213.824219 " fill-opacity="1" fill-rule="nonzero"/></g><g clip-path="url(#id3)"><path fill="#5bf3c7" d="M 122.289062 228.023438 L 59.25 228.023438 C 58.234375 228.023438 57.3125 227.5 56.804688 226.613281 C 56.296875 225.734375 56.296875 224.683594 56.804688 223.808594 L 87.679688 170.550781 C 88.324219 169.441406 89.480469 168.773438 90.769531 168.773438 C 92.0625 168.773438 93.214844 169.429688 93.859375 170.550781 L 124.734375 223.820312 C 125.242188 224.695312 125.242188 225.75 124.734375 226.625 C 124.210938 227.5 123.304688 228.023438 122.289062 228.023438 Z M 58.496094 224.777344 C 58.261719 225.175781 58.414062 225.515625 58.496094 225.652344 C 58.578125 225.792969 58.796875 226.09375 59.25 226.09375 L 122.273438 226.09375 C 122.726562 226.09375 122.960938 225.792969 123.03125 225.652344 C 123.113281 225.515625 123.265625 225.175781 123.03125 224.777344 L 92.171875 171.507812 C 91.882812 171 91.359375 170.699219 90.769531 170.699219 C 90.179688 170.699219 89.65625 171 89.367188 171.507812 Z M 58.496094 224.777344 " fill-opacity="1" fill-rule="nonzero"/></g></svg>