<svg xmlns="http://www.w3.org/2000/svg" xmlns:xlink="http://www.w3.org/1999/xlink" width="410" zoomAndPan="magnify" viewBox="0 0 307.5 89.999999" height="120" preserveAspectRatio="xMidYMid meet" version="1.0"><defs><g/><clipPath id="5924c1b75d"><path d="M 26.285156 5.472656 L 93.304688 5.472656 L 93.304688 63.019531 L 26.285156 63.019531 Z M 26.285156 5.472656 " clip-rule="nonzero"/></clipPath><clipPath id="1fb7510790"><path d="M 8.054688 16.109375 L 75 16.109375 L 75 73.660156 L 8.054688 73.660156 Z M 8.054688 16.109375 " clip-rule="nonzero"/></clipPath><clipPath id="03294876fa"><path d="M 26.285156 26.75 L 93.304688 26.75 L 93.304688 84.296875 L 26.285156 84.296875 Z M 26.285156 26.75 " clip-rule="nonzero"/></clipPath></defs><g fill="#ffffff" fill-opacity="1"><g transform="translate(103.593573, 67.074786)"><g><path d="M 13.160156 -1.417969 C 6.933594 -1.417969 5.3125 -4.757812 5.3125 -8.097656 L 3.289062 -8.097656 L 3.289062 -7.894531 C 3.289062 -4.199219 5.617188 0.507812 13.160156 0.507812 C 19.433594 0.507812 23.027344 -2.683594 23.027344 -6.984375 L 23.027344 -7.1875 C 23.027344 -11.84375 20.648438 -13.96875 13.917969 -14.472656 C 7.1875 -15.03125 5.71875 -16.800781 5.71875 -19.992188 C 5.71875 -23.484375 8.503906 -25.40625 13.160156 -25.40625 C 19.03125 -25.40625 20.75 -22.621094 20.75 -18.21875 L 22.773438 -18.21875 L 22.773438 -18.421875 C 22.773438 -23.484375 20.292969 -27.328125 13.160156 -27.328125 C 6.882812 -27.328125 3.59375 -24.191406 3.59375 -20.09375 L 3.59375 -19.839844 C 3.59375 -16.195312 5.3125 -13.460938 12.398438 -12.804688 C 18.320312 -12.296875 20.902344 -11.386719 20.902344 -7.085938 C 20.902344 -3.59375 18.117188 -1.417969 13.160156 -1.417969 Z M 13.160156 -1.417969 "/></g></g></g><g fill="#ffffff" fill-opacity="1"><g transform="translate(129.906341, 67.074786)"><g><path d="M 4.046875 0 L 6.074219 0 L 6.074219 -26.824219 L 4.046875 -26.824219 Z M 6.578125 -37.199219 L 3.542969 -37.199219 L 3.542969 -34.160156 L 6.578125 -34.160156 Z M 6.578125 -37.199219 "/></g></g></g><g fill="#ffffff" fill-opacity="1"><g transform="translate(140.026637, 67.074786)"><g><path d="M 13.160156 -27.328125 C 5.820312 -27.328125 2.785156 -21.257812 2.785156 -13.917969 L 2.785156 -12.90625 C 2.785156 -5.566406 5.820312 0.507812 13.160156 0.507812 C 17.410156 0.507812 19.941406 -1.519531 21.257812 -3.796875 L 21.761719 0 L 23.28125 0 L 23.027344 -7.589844 L 23.027344 -40.488281 L 21.003906 -40.488281 L 21.003906 -23.484375 C 19.585938 -25.558594 17.15625 -27.328125 13.160156 -27.328125 Z M 21.003906 -6.074219 C 19.738281 -4.046875 17.511719 -1.417969 13.410156 -1.417969 C 7.691406 -1.417969 4.910156 -5.921875 4.910156 -12.90625 L 4.910156 -13.917969 C 4.910156 -20.902344 7.691406 -25.40625 13.410156 -25.40625 C 17.511719 -25.40625 19.738281 -22.773438 21.003906 -20.75 Z M 21.003906 -6.074219 "/></g></g></g><g fill="#ffffff" fill-opacity="1"><g transform="translate(166.592412, 67.074786)"><g><path d="M 24.546875 -12.449219 L 24.546875 -13.917969 C 24.546875 -21.257812 21.308594 -27.328125 13.664062 -27.328125 C 6.023438 -27.328125 2.785156 -21.257812 2.785156 -13.917969 L 2.785156 -12.90625 C 2.785156 -5.566406 6.074219 0.507812 13.917969 0.507812 C 21.40625 0.507812 24.546875 -4.554688 24.546875 -8.402344 L 24.546875 -8.605469 L 22.519531 -8.605469 C 22.519531 -5.3125 20.144531 -1.417969 13.917969 -1.417969 C 7.691406 -1.417969 5.011719 -5.871094 4.910156 -12.449219 Z M 13.664062 -25.40625 C 19.535156 -25.40625 22.269531 -20.953125 22.421875 -14.375 L 4.910156 -14.375 C 5.011719 -20.953125 7.742188 -25.40625 13.664062 -25.40625 Z M 13.664062 -25.40625 "/></g></g></g><g fill="#ffffff" fill-opacity="1"><g transform="translate(193.917216, 67.074786)"><g><path d="M 5.566406 -40.488281 L 3.542969 -40.488281 L 3.542969 -7.589844 L 3.289062 0 L 4.808594 0 L 5.261719 -3.796875 C 6.628906 -1.519531 9.109375 0.507812 13.410156 0.507812 C 20.75 0.507812 23.785156 -5.566406 23.785156 -12.90625 L 23.785156 -13.917969 C 23.785156 -21.257812 20.75 -27.328125 13.410156 -27.328125 C 9.414062 -27.328125 6.933594 -25.558594 5.566406 -23.484375 Z M 5.566406 -6.074219 L 5.566406 -20.75 C 6.832031 -22.773438 9.058594 -25.40625 13.160156 -25.40625 C 18.878906 -25.40625 21.660156 -20.902344 21.660156 -13.917969 L 21.660156 -12.90625 C 21.660156 -5.921875 18.878906 -1.417969 13.160156 -1.417969 C 9.058594 -1.417969 6.832031 -4.046875 5.566406 -6.074219 Z M 5.566406 -6.074219 "/></g></g></g><g fill="#ffffff" fill-opacity="1"><g transform="translate(220.482991, 67.074786)"><g><path d="M 20.496094 0 L 22.015625 0 L 21.761719 -7.589844 L 21.761719 -17.460938 C 21.761719 -23.179688 19.636719 -27.328125 12.652344 -27.328125 C 5.0625 -27.328125 3.542969 -22.269531 3.542969 -18.421875 L 3.542969 -17.964844 L 5.566406 -17.964844 C 5.566406 -22.015625 6.832031 -25.40625 12.652344 -25.40625 C 18.066406 -25.40625 19.738281 -22.671875 19.738281 -17.460938 L 19.738281 -16.449219 L 11.03125 -15.082031 C 7.085938 -14.472656 2.53125 -12.90625 2.53125 -7.085938 L 2.53125 -6.578125 C 2.53125 -2.277344 5.566406 0.507812 10.121094 0.507812 C 15.183594 0.507812 18.269531 -1.722656 19.992188 -4.046875 Z M 10.375 -1.417969 C 6.328125 -1.417969 4.554688 -3.898438 4.554688 -6.578125 L 4.554688 -7.085938 C 4.554688 -10.578125 7.085938 -12.449219 10.882812 -13.109375 L 19.738281 -14.574219 L 19.738281 -6.476562 C 18.777344 -4.757812 16.347656 -1.417969 10.375 -1.417969 Z M 10.375 -1.417969 "/></g></g></g><g fill="#ffffff" fill-opacity="1"><g transform="translate(245.783736, 67.074786)"><g><path d="M 13.160156 -1.417969 C 6.933594 -1.417969 5.3125 -4.757812 5.3125 -8.097656 L 3.289062 -8.097656 L 3.289062 -7.894531 C 3.289062 -4.199219 5.617188 0.507812 13.160156 0.507812 C 19.433594 0.507812 23.027344 -2.683594 23.027344 -6.984375 L 23.027344 -7.1875 C 23.027344 -11.84375 20.648438 -13.96875 13.917969 -14.472656 C 7.1875 -15.03125 5.71875 -16.800781 5.71875 -19.992188 C 5.71875 -23.484375 8.503906 -25.40625 13.160156 -25.40625 C 19.03125 -25.40625 20.75 -22.621094 20.75 -18.21875 L 22.773438 -18.21875 L 22.773438 -18.421875 C 22.773438 -23.484375 20.292969 -27.328125 13.160156 -27.328125 C 6.882812 -27.328125 3.59375 -24.191406 3.59375 -20.09375 L 3.59375 -19.839844 C 3.59375 -16.195312 5.3125 -13.460938 12.398438 -12.804688 C 18.320312 -12.296875 20.902344 -11.386719 20.902344 -7.085938 C 20.902344 -3.59375 18.117188 -1.417969 13.160156 -1.417969 Z M 13.160156 -1.417969 "/></g></g></g><g fill="#ffffff" fill-opacity="1"><g transform="translate(272.096505, 67.074786)"><g><path d="M 24.546875 -12.449219 L 24.546875 -13.917969 C 24.546875 -21.257812 21.308594 -27.328125 13.664062 -27.328125 C 6.023438 -27.328125 2.785156 -21.257812 2.785156 -13.917969 L 2.785156 -12.90625 C 2.785156 -5.566406 6.074219 0.507812 13.917969 0.507812 C 21.40625 0.507812 24.546875 -4.554688 24.546875 -8.402344 L 24.546875 -8.605469 L 22.519531 -8.605469 C 22.519531 -5.3125 20.144531 -1.417969 13.917969 -1.417969 C 7.691406 -1.417969 5.011719 -5.871094 4.910156 -12.449219 Z M 13.664062 -25.40625 C 19.535156 -25.40625 22.269531 -20.953125 22.421875 -14.375 L 4.910156 -14.375 C 5.011719 -20.953125 7.742188 -25.40625 13.664062 -25.40625 Z M 13.664062 -25.40625 "/></g></g></g><g clip-path="url(#5924c1b75d)"><path fill="#ffffff" d="M 90.40625 63.019531 L 29.179688 63.019531 C 28.191406 63.019531 27.300781 62.515625 26.804688 61.652344 C 26.3125 60.800781 26.3125 59.777344 26.804688 58.925781 L 56.792969 7.199219 C 57.417969 6.121094 58.539062 5.472656 59.792969 5.472656 C 61.046875 5.472656 62.167969 6.109375 62.796875 7.199219 L 92.78125 58.941406 C 93.277344 59.789062 93.277344 60.8125 92.78125 61.664062 C 92.277344 62.515625 91.394531 63.019531 90.40625 63.019531 Z M 28.445312 59.871094 C 28.21875 60.253906 28.367188 60.585938 28.445312 60.71875 C 28.527344 60.855469 28.738281 61.144531 29.179688 61.144531 L 90.394531 61.144531 C 90.835938 61.144531 91.0625 60.855469 91.128906 60.71875 C 91.207031 60.585938 91.355469 60.253906 91.128906 59.871094 L 61.15625 8.128906 C 60.875 7.636719 60.367188 7.34375 59.792969 7.34375 C 59.21875 7.34375 58.714844 7.636719 58.433594 8.128906 Z M 28.445312 59.871094 " fill-opacity="1" fill-rule="nonzero"/></g><g clip-path="url(#1fb7510790)"><path fill="#585e63" d="M 72.175781 73.660156 L 10.949219 73.660156 C 9.960938 73.660156 9.066406 73.152344 8.574219 72.289062 C 8.082031 71.4375 8.082031 70.414062 8.574219 69.566406 L 38.5625 17.835938 C 39.1875 16.761719 40.308594 16.109375 41.5625 16.109375 C 42.816406 16.109375 43.9375 16.746094 44.566406 17.835938 L 74.550781 69.578125 C 75.046875 70.429688 75.046875 71.453125 74.550781 72.304688 C 74.042969 73.152344 73.164062 73.660156 72.175781 73.660156 Z M 10.214844 70.507812 C 9.988281 70.894531 10.136719 71.226562 10.214844 71.359375 C 10.296875 71.492188 10.507812 71.785156 10.949219 71.785156 L 72.164062 71.785156 C 72.605469 71.785156 72.832031 71.492188 72.898438 71.359375 C 72.976562 71.226562 73.125 70.894531 72.898438 70.507812 L 42.925781 18.769531 C 42.644531 18.277344 42.136719 17.984375 41.5625 17.984375 C 40.988281 17.984375 40.484375 18.277344 40.203125 18.769531 Z M 10.214844 70.507812 " fill-opacity="1" fill-rule="nonzero"/></g><g clip-path="url(#03294876fa)"><path fill="#5bf3c7" d="M 90.40625 84.296875 L 29.179688 84.296875 C 28.191406 84.296875 27.300781 83.792969 26.804688 82.929688 C 26.3125 82.078125 26.3125 81.054688 26.804688 80.203125 L 56.792969 28.476562 C 57.417969 27.398438 58.539062 26.75 59.792969 26.75 C 61.046875 26.75 62.167969 27.386719 62.796875 28.476562 L 92.78125 80.21875 C 93.277344 81.066406 93.277344 82.089844 92.78125 82.941406 C 92.277344 83.792969 91.394531 84.296875 90.40625 84.296875 Z M 28.445312 81.148438 C 28.21875 81.53125 28.367188 81.867188 28.445312 82 C 28.527344 82.132812 28.738281 82.421875 29.179688 82.421875 L 90.394531 82.421875 C 90.835938 82.421875 91.0625 82.132812 91.128906 82 C 91.207031 81.867188 91.355469 81.53125 91.128906 81.148438 L 61.15625 29.40625 C 60.875 28.914062 60.367188 28.621094 59.792969 28.621094 C 59.21875 28.621094 58.714844 28.914062 58.433594 29.40625 Z M 28.445312 81.148438 " fill-opacity="1" fill-rule="nonzero"/></g></svg>